# xmcd
#
# Track frame offsets:
#	150
#	17820
#	33913
#	52622
#	75001
#	92090
#	112994
#	134250
#	156881
#	176901
#	199627
#	207908
#	226033
#	248914
#
# Disc length: 3556 seconds
#
# Revision: 1
# Processed by: cddbd v1.5.2PL0 Copyright (c) Steve Scherf et al.
# Submitted via: audiograbber 1.83.01
#
DISCID=a00de20e
DTITLE=Legend, John - Once Again
DYEAR=2006
DGENRE=R&B
TTITLE0=Save Room
TTITLE1=Heaven
TTITLE2=Stereo
TTITLE3=Show Me
TTITLE4=Each Day Gets Better
TTITLE5=P.D.A. (We Just Don´t Care)
TTITLE6=Slow Dance
TTITLE7=Again
TTITLE8=Maxine
TTITLE9=Where Did My Baby Go
TTITLE10=Maxine´s Interlude
TTITLE11=Another Again
TTITLE12=Coming Home
TTITLE13=On Top Of The World
EXTD=
EXTT0=
EXTT1=
EXTT2=
EXTT3=
EXTT4=
EXTT5=
EXTT6=
EXTT7=
EXTT8=
EXTT9=
EXTT10=
EXTT11=
EXTT12=
EXTT13=
PLAYORDER=
